<svg width="27" height="21" viewBox="0 0 27 21" fill="none" xmlns="http://www.w3.org/2000/svg">
<path d="M0.333374 3.83333C0.333374 1.99238 1.82576 0.5 3.66671 0.5H12L15.3334 3.83333H23.6667C25.5077 3.83333 27 5.32572 27 7.16667V17.1667C27 19.0076 25.5077 20.5 23.6667 20.5H3.66671C1.82576 20.5 0.333374 19.0076 0.333374 17.1667V3.83333Z" fill="#DEDEDE"/>
<path d="M13.2548 11.3217H11.7683C11.7411 11.1294 11.6857 10.9586 11.602 10.8093C11.5183 10.6577 11.4108 10.5287 11.2796 10.4224C11.1484 10.316 10.9968 10.2346 10.8248 10.178C10.6551 10.1214 10.4707 10.0932 10.2716 10.0932C9.91186 10.0932 9.5985 10.1825 9.33151 10.3613C9.06453 10.5377 8.85751 10.7957 8.71044 11.1351C8.56337 11.4722 8.48984 11.8817 8.48984 12.3636C8.48984 12.8591 8.56337 13.2755 8.71044 13.6126C8.85977 13.9497 9.06792 14.2042 9.33491 14.3762C9.60189 14.5482 9.91073 14.6341 10.2614 14.6341C10.4583 14.6341 10.6404 14.6081 10.8078 14.5561C10.9775 14.504 11.128 14.4282 11.2592 14.3287C11.3904 14.2269 11.4991 14.1036 11.585 13.9588C11.6733 13.8139 11.7344 13.6488 11.7683 13.4633L13.2548 13.47C13.2163 13.7891 13.1202 14.0968 12.9663 14.3932C12.8147 14.6873 12.61 14.9509 12.352 15.1839C12.0964 15.4147 11.7909 15.598 11.4357 15.7337C11.0827 15.8672 10.6834 15.934 10.2377 15.934C9.61773 15.934 9.0634 15.7937 8.57468 15.5131C8.08823 15.2326 7.7036 14.8264 7.42078 14.2947C7.14022 13.763 6.99994 13.1193 6.99994 12.3636C6.99994 11.6057 7.14248 10.9608 7.42756 10.4291C7.71265 9.89744 8.09955 9.49244 8.58826 9.21414C9.07697 8.93358 9.62678 8.7933 10.2377 8.7933C10.6404 8.7933 11.0137 8.84987 11.3576 8.963C11.7038 9.07613 12.0104 9.24129 12.2774 9.4585C12.5444 9.67344 12.7616 9.93703 12.929 10.2493C13.0987 10.5615 13.2073 10.919 13.2548 11.3217Z" fill="#1C1C1C"/>
<path d="M14.9431 8.88833L16.6231 14.1692H16.6875L18.3709 8.88833H19.9999L17.6039 15.8389H15.7101L13.3107 8.88833H14.9431Z" fill="#1C1C1C"/>
</svg>
