<svg width="21" height="21" viewBox="0 0 21 21" fill="none" xmlns="http://www.w3.org/2000/svg">
<path d="M11.9306 20.5H7.48619V7.16667H11.9306V9.38889C12.878 8.18362 14.3147 7.46508 15.8473 7.43C18.6035 7.4453 20.8275 9.6882 20.8195 12.4444V20.5H16.3751V13C16.1973 11.7585 15.1326 10.8373 13.8784 10.84C13.3298 10.8573 12.812 11.0975 12.4445 11.5051C12.0769 11.9127 11.8913 12.4526 11.9306 13V20.5ZM5.26396 20.5H0.819519V7.16667H5.26396V20.5ZM3.04174 4.94444C1.81444 4.94444 0.819519 3.94952 0.819519 2.72222C0.819519 1.49492 1.81444 0.5 3.04174 0.5C4.26904 0.5 5.26396 1.49492 5.26396 2.72222C5.26396 3.31159 5.02984 3.87682 4.61309 4.29357C4.19634 4.71032 3.63111 4.94444 3.04174 4.94444Z" fill="#DEDEDE"/>
</svg>
