<svg width="25" height="21" viewBox="0 0 25 21" fill="none" xmlns="http://www.w3.org/2000/svg">
<path d="M21.9192 3.65358C22.9744 3.02278 23.7639 2.02951 24.1403 0.859238C23.1488 1.44754 22.064 1.86195 20.9328 2.08456C19.3645 0.425524 16.8797 0.0217906 14.8667 1.09895C12.8538 2.17612 11.8112 4.4675 12.3215 6.69275C8.26015 6.48885 4.47633 4.57041 1.91155 1.41481C0.573048 3.72352 1.25705 6.67484 3.47469 8.15936C2.67277 8.13358 1.88863 7.91646 1.18766 7.52611C1.18766 7.54729 1.18766 7.56848 1.18766 7.58967C1.18813 9.99458 2.88307 12.0661 5.24028 12.5427C4.49645 12.7451 3.71623 12.7749 2.95914 12.6298C3.62206 14.6865 5.51754 16.0954 7.67797 16.1375C5.88864 17.5419 3.67888 18.3035 1.40424 18.2997C1.00106 18.3003 0.598202 18.2771 0.197754 18.2303C2.5076 19.7146 5.19599 20.5024 7.94163 20.4997C11.7615 20.5259 15.4325 19.02 18.1335 16.3188C20.8345 13.6175 22.3401 9.94643 22.3135 6.12658C22.3135 5.90765 22.3084 5.68989 22.2982 5.47331C23.2875 4.75837 24.1413 3.87269 24.8195 2.85789C23.8979 3.2664 22.9203 3.53461 21.9192 3.65358Z" fill="#DEDEDE"/>
</svg>
