<svg width="999" height="702" viewBox="0 0 999 702" fill="none" xmlns="http://www.w3.org/2000/svg">
<path fill-rule="evenodd" clip-rule="evenodd" d="M71.6574 0L0 209.966L51.9775 227.704L78.8365 149.004L110.258 159.728C132.576 167.344 138.952 181.324 134.981 201.607C133.619 209.301 131.592 217.292 129.726 224.647C126.269 238.277 123.365 249.725 126.273 253.06L176.13 270.076L58.9999 306.53L124.928 518.364L283.816 468.914C277.744 475.029 272.631 481.84 268.489 489.233C253.687 515.142 250.397 547.881 259.543 581.408C268.445 614.037 286.299 639.399 310.412 654.692C333.301 669.032 361.087 673.03 391.62 664.7C417.364 657.677 435.95 643.279 444.058 617.588L444.657 617.425L454.674 642.352L489.898 632.742L485 687.99L638.92 701.637L643.031 655.275L543.817 646.479L559.281 472.067C576.452 476.82 590.683 473.403 605.047 464.374L605.914 464.713L598.798 482.92L642.758 500.101L602 553.478L654.648 570.173L678.874 535.864L752.817 559.312L753.14 601.406L808.154 618.851L798.977 384.976L823.067 451.974L874.749 433.391L846.612 355.138L877.854 343.905C900.045 335.926 913.752 342.867 923.31 361.194C927.048 368.055 930.452 375.563 933.585 382.474C939.391 395.281 944.268 406.038 948.621 406.829L998.843 388.771L997.898 386.143C992.819 386.141 988.392 375.77 982.409 361.758L982.409 361.757C978.68 353.022 974.347 342.873 968.876 332.939C958.502 313.258 945.064 305.23 924.756 305.608L924.441 304.732C945.631 287.55 951.198 265.434 942.484 241.199C928.521 202.365 889.322 192.389 847.86 207.297L748 243.203L798.255 382.968L745.075 366.105L645.413 496.624L701.714 352.572L654.607 334.161L622.302 416.815C615.412 434.444 600.842 442.742 584.658 436.417C569.63 430.543 565.907 418.76 572.232 402.576L606.344 315.298L559.526 297L521.574 394.104C508.697 427.05 517.918 456.306 552.02 469.634C554.116 470.454 556.167 471.158 558.177 471.751L504.594 467L490.398 627.111L460.433 517.275L371.227 541.612L381.843 580.527L421.956 569.584L422.12 570.183C425.169 589.613 413.768 612.665 385.929 620.26C352.402 629.406 324.124 605.923 313.426 566.708C302.809 527.793 312.468 493.638 347.791 484.002C371.14 477.632 389.102 486.883 397.73 503.184L449.218 489.137C430.083 446.113 389.151 425.76 334.071 440.787C314.813 446.041 299.006 454.745 286.742 466.09L273.454 423.393L163.537 457.602L149.429 412.273L242.163 383.412L229.438 342.526L136.705 371.387L124.902 333.465L233.041 299.809L219.579 256.553L176.945 269.822L177.684 267.655C173.717 264.484 176.731 253.617 180.803 238.936C183.341 229.784 186.291 219.149 188.217 207.972C192.396 186.121 186.907 171.461 170.805 159.08L171.106 158.199C198.386 158.002 216.539 144.197 224.858 119.824C238.187 80.7673 213.788 48.5065 172.088 34.2753L71.6574 0ZM131.022 123.864L91.9653 110.535L109.604 58.8511L149.835 72.5812C169.804 79.3962 176.08 93.669 170.869 108.939C165.457 124.797 151.578 130.88 131.022 123.864ZM702.912 502.146L752.602 517.903L752.856 461.67C752.777 449.6 754.047 429.17 754.047 429.17L753.456 428.983C753.456 428.983 742.425 446.318 735.406 456.136L702.912 502.146ZM832.858 316.888L871.692 302.925C892.131 295.575 899.178 282.16 893.509 266.393C888.05 251.21 874.237 243.976 854.382 251.115L814.38 265.498L832.858 316.888Z" fill="white"/>
</svg>
