<svg width="1012" height="715" viewBox="0 0 1012 715" fill="none" xmlns="http://www.w3.org/2000/svg">
<path fill-rule="evenodd" clip-rule="evenodd" d="M177.216 115.923C171.804 131.78 157.925 137.863 137.369 130.848L98.3123 117.519L115.951 65.8348L156.182 79.5649C176.151 86.3799 182.427 100.653 177.216 115.923ZM138.984 126.116L104.659 114.402L119.068 72.1817L154.567 84.2969C163.717 87.4195 169.083 92.0202 171.741 96.9469C174.374 101.828 174.728 107.731 172.484 114.308C170.158 121.123 166.243 125.315 161.15 127.306C155.906 129.357 148.59 129.394 138.984 126.116Z" fill="white"/>
<path fill-rule="evenodd" clip-rule="evenodd" d="M878.04 309.908C898.479 302.559 905.526 289.144 899.856 273.377C894.397 258.193 880.585 250.959 860.73 258.099L820.727 272.482L839.205 323.872L878.04 309.908ZM842.219 317.475L876.348 305.203C885.899 301.769 891.592 297.173 894.41 292.297C897.145 287.564 897.588 281.845 895.151 275.068C892.8 268.528 888.838 264.138 883.735 261.968C878.583 259.777 871.519 259.533 862.421 262.804L827.124 275.495L842.219 317.475Z" fill="white"/>
<path fill-rule="evenodd" clip-rule="evenodd" d="M759.803 435.966L759.71 436.111C759.288 436.774 757.454 439.646 754.98 443.453C751.151 449.344 745.789 457.474 741.753 463.12L709.259 509.13L758.949 524.887L759.203 468.653C759.158 461.724 759.557 452.04 759.906 445.048C760.13 440.532 760.334 437.139 760.383 436.336L760.394 436.154L759.803 435.966ZM754.534 453.251C751.604 457.676 748.451 462.346 745.828 466.016L745.82 466.028L717.287 506.43L753.98 518.066L754.203 468.658C754.174 464.142 754.329 458.529 754.534 453.251Z" fill="white"/>
<path fill-rule="evenodd" clip-rule="evenodd" d="M74.8873 0.636719L0 220.066L61.4415 241.035L88.3005 162.335L114.99 171.443C125.433 175.008 131.37 179.789 134.456 185.333C137.559 190.907 138.279 198.138 136.421 207.63L136.412 207.674L136.404 207.719C135.075 215.227 133.126 222.91 131.28 230.188C130.471 233.375 129.682 236.485 128.973 239.469C127.843 244.229 126.903 248.741 126.566 252.475C126.397 254.343 126.357 256.221 126.597 257.947C126.829 259.617 127.39 261.653 128.851 263.33L129.734 264.342L166.355 276.84L59.0872 310.225L127.987 531.608L275.525 485.69C273.718 488.295 272.037 490.985 270.485 493.755C254.934 520.986 251.63 555.116 261.067 589.708C270.243 623.343 288.756 649.836 314.082 665.898L314.093 665.905L314.105 665.912C338.291 681.065 367.538 685.168 399.283 676.507C422.418 670.196 440.545 657.978 450.75 637.185L458.041 655.331L490.63 646.44L485.925 699.512L649.806 714.042L654.8 657.72L555.586 648.923L570.102 485.209C575.942 486.282 581.558 486.467 587.041 485.811C592.61 485.146 597.927 483.628 603.097 481.408L598.668 492.74L641.103 509.325L600.058 563.079L662.969 583.029L687.195 548.719L754.192 569.964L754.515 612.059L819.777 632.753L811.591 424.168L826.401 465.355L887.493 443.388L859.356 365.135L885.893 355.593C896.277 351.86 903.9 351.89 909.772 354.295C915.675 356.713 920.751 361.914 925.223 370.489L925.244 370.53L925.266 370.57C928.914 377.264 932.186 384.484 935.286 391.323L935.287 391.324C936.644 394.319 937.969 397.24 939.277 400.013C941.365 404.438 943.448 408.55 945.514 411.678C946.548 413.242 947.689 414.734 948.954 415.933C950.177 417.093 951.887 418.335 954.075 418.732L955.397 418.972L1011.59 398.768L1007.76 388.128L1004.51 388.127C1004.47 388.098 1004.41 388.057 1004.34 388C1003.9 387.645 1003.24 386.935 1002.39 385.661C1000.67 383.101 998.785 379.247 996.56 374.206C995.572 371.968 994.531 369.529 993.425 366.939L993.42 366.926C989.685 358.176 985.22 347.716 979.625 337.55C974.162 327.199 967.672 319.491 959.505 314.475C954.166 311.195 948.304 309.183 941.869 308.234C948.727 300.886 953.414 292.737 955.844 283.923C959.117 272.05 958.177 259.397 953.536 246.491C946.044 225.654 931.611 212.302 913.389 206.327C895.334 200.407 873.992 201.853 852.515 209.576L747.95 247.174L796.476 382.13L749.582 367.259L669.354 472.328L714.538 356.719L658.117 334.668L623.993 421.979C620.873 429.962 616.196 435.373 610.956 438.172C605.817 440.919 599.663 441.416 592.826 438.743C586.26 436.177 582.904 432.65 581.498 428.678C580.034 424.541 580.308 418.873 583.236 411.38L619.168 319.445L563.036 297.507L523.264 399.268C516.511 416.546 515.338 433.416 520.851 447.98C524.306 457.107 530.275 465.032 538.661 471.422L506.402 468.562L494.228 605.871L470.288 518.119L371.434 545.088L384.683 593.651L423.944 582.94C424.131 598.706 413.903 616.16 390.96 622.42C375.75 626.569 361.901 623.345 350.5 614.631C338.978 605.823 329.734 591.204 324.597 572.376C319.464 553.562 319.392 536.436 324.407 523.122C329.337 510.034 339.319 500.211 355.454 495.809C376.647 490.027 392.173 498.366 399.658 512.506L401.531 516.045L462.501 499.411L460.134 494.089C450.133 471.602 434.286 454.756 413.486 445.6C392.712 436.456 367.499 435.2 339.103 442.947C322.053 447.598 307.512 454.893 295.607 464.337L283.09 424.117L173.173 458.326L162.037 422.545L254.77 393.684L239.073 343.25L146.34 372.111L137.509 343.737L245.649 310.081L229.215 257.277L187.244 270.339C187.164 269.76 187.135 268.888 187.238 267.645C187.491 264.571 188.428 260.386 189.836 255.059C190.462 252.69 191.172 250.13 191.926 247.412C194.47 238.244 197.51 227.285 199.484 215.85C201.676 204.353 201.416 194.28 198.167 185.263C196.043 179.368 192.718 174.138 188.283 169.38C198.228 167.919 206.976 164.478 214.376 159.108C224.343 151.875 231.507 141.402 235.937 128.423C243.089 107.466 240.146 88.0261 229.638 71.9841C219.227 56.0899 201.651 43.8988 180.05 36.5269L74.8873 0.636719ZM182.439 271.835C182.433 271.809 182.428 271.783 182.422 271.757C181.343 266.859 183.912 257.596 187.15 245.919C189.688 236.767 192.638 226.133 194.564 214.956C198.305 195.394 194.299 181.596 181.866 170.037C180.5 168.767 179.032 167.524 177.461 166.303C177.359 166.223 177.256 166.144 177.152 166.064L177.453 165.183C177.58 165.182 177.706 165.181 177.832 165.179C179.811 165.156 181.741 165.06 183.622 164.894C207.484 162.786 223.53 149.295 231.205 126.808C244.534 87.751 220.135 55.4902 178.435 41.259L78.0043 6.98368L6.34696 216.949L58.3244 234.688L85.1834 155.988L116.605 166.711C138.923 174.328 145.299 188.307 141.328 208.591C139.966 216.285 137.939 224.275 136.073 231.63C132.616 245.261 129.712 256.709 132.62 260.044L174.452 274.32L182.439 271.835ZM182.478 277.059L183.291 276.806L183.129 277.282L182.478 277.059ZM174.381 279.579L186.246 283.629L189.202 274.966L225.926 263.537L239.389 306.793L131.249 340.448L143.052 378.371L235.785 349.51L248.51 390.396L155.777 419.257L169.884 464.586L279.801 430.377L291.452 467.813C287.566 471.244 283.995 474.922 280.744 478.829L131.276 525.348L65.3471 313.513L174.381 279.579ZM283.663 483.157C280.349 487.268 277.406 491.631 274.836 496.217C260.034 522.126 256.744 554.865 265.891 588.392C274.792 621.021 292.647 646.383 316.76 661.675C339.648 676.015 367.434 680.014 397.967 671.684C421.569 665.245 439.154 652.608 448.165 630.754C448.972 628.797 449.71 626.767 450.377 624.66L450.405 624.572L451.004 624.408L461.021 649.336L491.101 641.129L492.956 620.208L466.78 524.259L377.574 548.596L388.191 587.511L428.303 576.568L428.467 577.166C428.695 578.622 428.843 580.097 428.908 581.586C429.716 599.964 418.03 620.217 392.276 627.243C358.749 636.39 330.472 612.907 319.773 573.692C309.157 534.777 318.815 500.622 354.138 490.985C377.487 484.615 395.449 493.867 404.077 510.167L455.565 496.121C454.871 494.56 454.149 493.029 453.398 491.529C433.443 451.667 393.501 433.289 340.418 447.77C323.25 452.454 308.824 459.88 297.206 469.475L299.892 478.106L283.663 483.157ZM293.089 473.073L293.632 474.818L290.163 475.898C291.115 474.939 292.091 473.997 293.089 473.073ZM829.414 458.958L810.94 407.58L810.111 386.454L802.473 384.032L754.347 250.187L854.207 214.281C895.669 199.372 934.868 209.349 948.831 248.183C956.871 270.542 952.754 291.098 935.427 307.639C934.061 308.943 932.613 310.222 931.082 311.476L930.915 311.612L930.788 311.715L931.103 312.591C931.233 312.589 931.363 312.587 931.493 312.585C933.482 312.558 935.405 312.614 937.266 312.753C954.194 314.024 965.936 322.304 975.223 339.923C980.694 349.857 985.027 360.006 988.756 368.74L988.757 368.741C993.514 379.885 997.289 388.726 1001.19 391.88C1002.19 392.691 1003.21 393.126 1004.25 393.127L1005.19 395.754L954.969 413.813C950.615 413.022 945.738 402.265 939.932 389.458L939.931 389.456C936.798 382.546 933.395 375.038 929.657 368.177C920.1 349.851 906.393 342.909 884.201 350.888L852.959 362.122L881.096 440.375L829.414 458.958ZM805.253 390.158L804.602 389.952L805.324 391.959L805.253 390.158ZM805.974 408.546L798.605 388.05L751.422 373.088L662.757 489.205L653.066 514.001L645.948 511.219L608.347 560.462L660.995 577.157L685.221 542.848L759.164 566.296L759.487 608.39L814.501 625.835L805.974 408.546ZM496.745 634.094L496.245 639.726L498.14 639.209L496.745 634.094ZM504.28 642.717L495.775 645.037L491.347 694.973L645.267 708.62L649.378 662.259L550.164 653.462L565.18 484.108C562.361 483.366 559.486 482.424 556.547 481.275C553.444 480.062 550.52 478.718 547.776 477.25L510.941 473.984L498.016 619.757L504.28 642.717ZM658.357 486.73L708.061 359.556L660.954 341.145L628.649 423.799C621.759 441.428 607.189 449.726 591.005 443.4C575.977 437.527 572.254 425.744 578.579 409.56L612.691 322.282L565.873 303.984L527.921 401.088C516.278 430.878 522.701 457.652 549.251 472.361L571.069 474.295L570.545 480.205C583.385 482.67 594.65 480.412 605.755 474.608C607.637 473.625 609.515 472.539 611.394 471.358L612.261 471.697L605.145 489.904L644.26 505.191L658.357 486.73ZM649.105 507.085L651.76 503.607L650.229 507.524L649.105 507.085ZM565.628 479.05L565.647 478.834L564.524 478.735C564.687 478.782 564.849 478.83 565.011 478.876C565.217 478.935 565.423 478.993 565.628 479.05Z" fill="white"/>
</svg>
